<?xml version="1.0" standalone="no"?>
<!DOCTYPE svg PUBLIC "-//W3C//DTD SVG 20010904//EN"
 "http://www.w3.org/TR/2001/REC-SVG-20010904/DTD/svg10.dtd">
<svg version="1.0" xmlns="http://www.w3.org/2000/svg"
 width="64.000000pt" height="64.000000pt" viewBox="0 0 64.000000 64.000000"
 preserveAspectRatio="xMidYMid meet">

<g transform="translate(0.000000,64.000000) scale(0.100000,-0.100000)"
fill="#000000" stroke="none">
<path d="M17 572 c-13 -14 -17 -39 -17 -106 0 -56 4 -85 10 -81 5 3 10 22 10
41 l0 34 300 0 300 0 -2 -167 -3 -168 -57 -3 c-73 -4 -76 -22 -4 -22 87 0 86
-3 86 244 0 194 -2 214 -18 229 -20 18 -72 23 -72 8 0 -6 15 -11 33 -13 30 -3
32 -6 35 -45 l3 -43 -301 0 -301 0 3 43 3 42 248 3 c153 1 247 6 247 12 0 6
-91 10 -243 10 -224 0 -245 -2 -260 -18z"/>
<path d="M65 531 c-7 -12 12 -24 25 -16 11 7 4 25 -10 25 -5 0 -11 -4 -15 -9z"/>
<path d="M120 525 c0 -8 7 -15 15 -15 8 0 15 7 15 15 0 8 -7 15 -15 15 -8 0
-15 -7 -15 -15z"/>
<path d="M170 525 c0 -8 7 -15 15 -15 8 0 15 7 15 15 0 8 -7 15 -15 15 -8 0
-15 -7 -15 -15z"/>
<path d="M0 246 c0 -147 0 -146 126 -146 93 0 95 -1 104 -26 10 -25 11 -26 36
-9 24 16 27 16 46 -2 19 -17 21 -17 43 10 20 22 32 27 70 27 25 0 45 5 45 10
0 6 -28 10 -65 10 -36 0 -65 2 -65 5 0 3 7 16 16 29 8 13 11 27 6 29 -29 19
-177 66 -184 59 -5 -5 -2 -24 6 -43 35 -85 39 -80 -66 -77 l-93 3 -3 118 c-3
153 -22 156 -22 3z m270 -47 c73 -28 74 -28 54 -50 -16 -18 -16 -20 6 -44 27
-28 8 -35 -22 -8 -17 15 -19 15 -37 -1 -12 -11 -21 -14 -25 -7 -7 10 -46 120
-46 128 0 7 16 2 70 -18z"/>
<path d="M80 345 c0 -20 27 -85 35 -85 3 0 12 14 19 31 l13 31 11 -31 c14 -41
25 -39 41 7 8 20 16 43 18 50 3 6 1 12 -5 12 -6 0 -16 -15 -22 -32 l-13 -33
-10 33 c-13 41 -23 41 -40 0 l-13 -33 -12 33 c-12 34 -22 42 -22 17z"/>
<path d="M254 335 c19 -75 40 -96 52 -50 3 14 10 25 14 25 4 0 11 -11 14 -25
4 -14 10 -25 15 -25 9 0 41 71 41 90 0 23 -18 8 -27 -22 l-10 -33 -13 33 c-6
17 -16 32 -20 32 -4 0 -14 -15 -20 -32 l-13 -33 -10 33 c-11 37 -32 44 -23 7z"/>
<path d="M420 353 c0 -16 33 -93 40 -93 5 0 14 15 20 33 l13 32 10 -32 c5 -18
14 -33 19 -33 9 0 23 31 34 75 9 37 -12 30 -23 -7 l-10 -33 -13 33 c-14 38
-27 41 -36 7 -3 -14 -10 -25 -15 -25 -5 0 -11 11 -15 25 -5 22 -24 36 -24 18z"/>
</g>
</svg>
